<svg width="61" height="62" viewBox="0 0 61 62" fill="none" xmlns="http://www.w3.org/2000/svg">
<path d="M0.975909 36.2571C2.03613 39.197 3.61181 42.3864 5.82843 44.245C10.7441 48.3675 11.7975 49.7218 13.6122 57.9667C15.4268 66.2117 23.8537 59.262 23.8537 59.262C23.8537 59.262 26.3701 57.5539 30.5885 59.9425C31.7559 60.5078 33.0575 60.7324 34.3454 60.5906C37.8567 60.4136 44.4585 58.9459 49.8377 51.194C57.5629 40.0636 62.069 36.7653 60.7818 26.8712C59.4947 16.977 58.031 11.8534 46.9118 10.1453C39.3317 8.98159 33.0861 4.94152 29.8746 2.48935C29.6567 2.32225 29.4343 2.16421 29.2074 2.01374C27.8875 1.13128 26.4067 0.521157 24.8508 0.218733C23.2949 -0.083691 21.6948 -0.0724075 20.1433 0.25193C17.1715 0.918614 14.4133 2.32486 12.1214 4.3419C11.0558 5.24847 10.0847 6.26188 9.22324 7.36647C7.75169 9.25189 6.59842 11.3681 5.80964 13.6303C4.70183 16.8962 3.37946 20.0843 1.85129 23.1736C1.01701 24.7642 0.449818 26.4826 0.172666 28.2594C-0.218525 30.9512 0.0574034 33.6986 0.975909 36.2571Z" fill="#828A9E"/>
<path d="M19.0553 55.8866C19.2993 55.8865 19.5337 55.7904 19.7084 55.619C19.8832 55.4475 19.9845 55.2141 19.9907 54.9686C20.1583 49.3172 16.9852 46.5603 16.8492 46.4462C16.6586 46.2952 16.4174 46.2244 16.1761 46.2489C15.9348 46.2733 15.7123 46.391 15.5556 46.5772C15.3988 46.7634 15.3199 47.0035 15.3356 47.247C15.3512 47.4906 15.4601 47.7185 15.6394 47.8828C15.7551 47.9834 18.2588 50.2201 18.119 54.9104C18.1153 55.0341 18.1358 55.1573 18.1795 55.273C18.2231 55.3887 18.2889 55.4946 18.3732 55.5847C18.4575 55.6747 18.5586 55.7472 18.6707 55.798C18.7828 55.8488 18.9038 55.8768 19.0267 55.8805L19.0553 55.8866Z" fill="#62667C"/>
<path d="M6.25672 32.9581C6.29364 32.958 6.33052 32.9557 6.36717 32.9513C6.61364 32.9221 6.83852 32.7956 6.99237 32.5997C7.14623 32.4038 7.21649 32.1543 7.1877 31.9063C6.62039 27.0488 8.1848 24.6413 8.20058 24.6178C8.34177 24.4123 8.39604 24.1587 8.35144 23.9129C8.30684 23.6671 8.16703 23.4492 7.96277 23.3071C7.7585 23.165 7.50651 23.1104 7.26224 23.1553C7.01796 23.2001 6.80141 23.3408 6.66022 23.5464C6.57832 23.6644 4.66977 26.4953 5.32799 32.1263C5.355 32.3553 5.4644 32.5663 5.63553 32.7195C5.80665 32.8728 6.02764 32.9577 6.25672 32.9581Z" fill="#62667C"/>
<path d="M43.3217 32.9581C43.4628 32.9582 43.6022 32.9261 43.7293 32.8644C43.8564 32.8027 43.968 32.7128 44.0558 32.6016C44.1436 32.4903 44.2053 32.3606 44.2362 32.222C44.2672 32.0834 44.2666 31.9395 44.2346 31.8012C43.2458 27.535 39.3144 26.1732 37.3736 26.0492C37.1258 26.033 36.8817 26.1165 36.6951 26.2813C36.5084 26.4462 36.3945 26.6789 36.3784 26.9282C36.3622 27.1776 36.4452 27.4232 36.609 27.611C36.7728 27.7989 37.004 27.9135 37.2519 27.9298C37.4337 27.9426 41.495 28.2814 42.4102 32.2292C42.4582 32.4363 42.5743 32.621 42.7398 32.7534C42.9052 32.8857 43.1103 32.9579 43.3217 32.9581Z" fill="#62667C"/>
<path d="M53.2326 35.6273C53.4613 35.6276 53.6822 35.5434 53.8532 35.3906C56.9129 32.6632 56.447 28.1362 56.426 27.9449C56.3986 27.6965 56.2743 27.4693 56.0804 27.3131C55.8865 27.157 55.6389 27.0848 55.3921 27.1124C55.1453 27.1399 54.9195 27.265 54.7643 27.4602C54.6092 27.6553 54.5374 27.9044 54.5648 28.1528C54.5686 28.1899 54.9352 31.9086 52.6112 33.9796C52.4688 34.1064 52.3682 34.2738 52.3227 34.4596C52.2772 34.6453 52.2889 34.8406 52.3564 35.0194C52.4238 35.1983 52.5438 35.3522 52.7003 35.4608C52.8568 35.5694 53.0425 35.6274 53.2326 35.6273Z" fill="#62667C"/>
<path d="M32.476 37.355C34.1998 37.355 35.5973 36.2477 35.5973 34.8817C35.5973 33.5157 34.1998 32.4084 32.476 32.4084C30.7521 32.4084 29.3547 33.5157 29.3547 34.8817C29.3547 36.2477 30.7521 37.355 32.476 37.355Z" fill="#62667C"/>
<path d="M30.5484 49.2309C32.1158 47.7985 32.8395 46.0314 32.1649 45.2838C31.4903 44.5363 29.6729 45.0914 28.1055 46.5238C26.5381 47.9561 25.8143 49.7233 26.4889 50.4708C27.1635 51.2183 28.981 50.6632 30.5484 49.2309Z" fill="#62667C"/>
<path d="M46.0173 47.2329C46.8269 45.5795 46.4241 43.7139 45.1175 43.066C43.8109 42.4181 42.0954 43.2333 41.2858 44.8867C40.4761 46.5402 40.879 48.4058 42.1855 49.0537C43.4921 49.7016 45.2076 48.8864 46.0173 47.2329Z" fill="#62667C"/>
<path d="M17.7793 42.1086C19.2113 40.6675 18.8593 37.9768 16.993 36.0987C15.1267 34.2207 12.4529 33.8664 11.0208 35.3075C9.58879 36.7486 9.94079 39.4394 11.8071 41.3174C13.6734 43.1955 16.3472 43.5497 17.7793 42.1086Z" fill="#62667C"/>
<path d="M22.4603 24.299C25.7688 23.5909 28.0364 21.0559 27.5252 18.6368C27.0139 16.2177 23.9174 14.8307 20.6088 15.5388C17.3003 16.2469 15.0327 18.782 15.5439 21.201C16.0552 23.6201 19.1517 25.0071 22.4603 24.299Z" fill="#62667C"/>
<path d="M9.22324 7.36419C11.2903 8.93999 14.483 9.95096 18.0672 9.95096C24.3038 9.95096 29.3554 6.89085 29.3554 3.11921C29.3549 2.74585 29.3044 2.37425 29.2051 2.01449C27.8852 1.13202 26.4044 0.521905 24.8485 0.219481C23.2926 -0.0829433 21.6926 -0.0716599 20.141 0.252678C17.1701 0.919497 14.4128 2.32546 12.1214 4.3419C11.0559 5.24775 10.0849 6.2604 9.22324 7.36419Z" fill="#62667C"/>
<path d="M42.7866 15.6205C43.1383 15.6205 43.3584 15.6039 43.399 15.6008C43.6465 15.5808 43.876 15.4626 44.0369 15.2723C44.1978 15.082 44.277 14.8352 44.2571 14.5861C44.2372 14.337 44.1197 14.1061 43.9306 13.9442C43.7415 13.7822 43.4962 13.7025 43.2487 13.7226C43.1834 13.7279 38.8809 14.025 36.2773 11.2644C36.1062 11.0832 35.8706 10.9778 35.6223 10.9714C35.374 10.965 35.1334 11.0582 34.9533 11.2303C34.7733 11.4025 34.6686 11.6396 34.6622 11.8895C34.6559 12.1393 34.7484 12.3815 34.9195 12.5627C37.5314 15.3301 41.3139 15.6205 42.7866 15.6205Z" fill="#62667C"/>
</svg>
